<svg width="20" height="20" viewBox="0 0 20 20" fill="none" xmlns="http://www.w3.org/2000/svg">
<g id="Icons/Map-pin">
<path id="Vector" d="M16.6663 8.48469C16.6663 13.7877 9.99967 18.3332 9.99967 18.3332C9.99967 18.3332 3.33301 13.7877 3.33301 8.48469C3.33301 6.67639 4.03539 4.94216 5.28563 3.6635C6.53587 2.38485 8.23156 1.6665 9.99967 1.6665C11.7678 1.6665 13.4635 2.38485 14.7137 3.6635C15.964 4.94216 16.6663 6.67639 16.6663 8.48469Z" stroke="#EBEAF2" stroke-width="1.5" stroke-linecap="round" stroke-linejoin="round"/>
<path id="Vector_2" d="M9.99967 10.4168C11.2653 10.4168 12.2913 9.39082 12.2913 8.12516C12.2913 6.85951 11.2653 5.8335 9.99967 5.8335C8.73402 5.8335 7.70801 6.85951 7.70801 8.12516C7.70801 9.39082 8.73402 10.4168 9.99967 10.4168Z" stroke="#EBEAF2" stroke-width="1.5" stroke-linecap="round" stroke-linejoin="round"/>
</g>
</svg>
